<svg xmlns="http://www.w3.org/2000/svg" x="0px" y="0px" viewBox="0 0 864 864" enable-background="new 0 0 864 864"><style>.fs0,.ls0{fill:#000}</style><g class="ls0"><path d="M123.6,253.1c11.1,68.6,32.1,133.9,61.6,194.3c10.5,21.5,22,42.3,34.5,62.5c2.5,4.1,5.1,8.1,7.7,12.1l50-27.1	c-10.4-15.8-20.1-32-29.1-48.6c-9.6-17.9-18.4-36.2-26.4-55c-1.5-3.6-3-7.1-4.4-10.7c-10.6-26.3-19.3-53.1-26.3-80.3	c17,11.2,34.3,22.1,51.7,32.7c16.2,9.8,32.5,19.3,49,28.5c9.2-16.5,18.6-32.9,28.4-49.1c14-23.2,28.7-46.1,43.9-68.5v92v61.5v1.9	v48.5v10.4v141.9v76.5c5.9,5,11.9,9.9,18,14.6c12.6,9.9,25.5,19.3,38.7,28.3v-53.7v-16.3V435.4v-9.5v-8.8v-43.5v-10V165.8v-1.5	v-26.2v-30.5c-8.4,0.1-16.7,0.3-25,0.6c-0.6,0-1.2,0-1.8,0.1c-10.2,12.6-20.2,25.4-29.9,38.3c-5.3,7-10.6,14.1-15.8,21.2	c-27.4,37.5-53.2,76.2-77.2,116c-32.4-19.6-64.1-40.5-95-62.5c-7.5-5.3-14.9-10.7-22.2-16.1c-13-9.6-25.9-19.5-38.6-29.5	c0.7,13.8,1.7,27.4,3.2,41C120.1,228.9,121.7,241.1,123.6,253.1z"/><path d="M504.4,595.5c-1.6,1.6-3.1,3.1-4.7,4.6V429.5V166.6v-56.8c-18.8-1.2-37.7-2-56.7-2.2v56.7v249.8v235.5v16.3v53.7	c13.2-9,26.1-18.5,38.7-28.3c6.1-4.8,12.1-9.7,18-14.6c67-56.3,123.3-124.9,165.3-202.4L608.7,459	C580.3,508.8,545.4,554.5,504.4,595.5z"/></g><g class="fs0"><path d="M432,42.6c115.3,0,228.8,18.1,337.4,53.8l45.9,15.1l-1.2,48.3c-1.5,63.8-11,127.2-28.1,188.2	c-16.6,59.3-40.5,116.7-71.1,170.4c-60,105.6-145.6,196.6-247.4,263.1L432,804.7l-35.6-23.2c-101.8-66.5-187.3-157.5-247.4-263.1	c-30.5-53.7-54.4-111-71.1-170.4c-17.1-61.1-26.6-124.4-28.1-188.2l-1.1-48.3l45.9-15.1C203.2,60.7,316.7,42.6,432,42.6 M432,788.1	l10.9-7.1l17.1-11.1c100-65.3,183.9-154.7,242.9-258.4c30-52.7,53.4-109,69.8-167.3c16.8-59.9,26.1-122.1,27.6-184.8l0.6-23.1	l0.4-14.8l-14.1-4.6l-22-7.2C657.8,74.3,545.8,56.4,432,56.4c-113.8,0-225.8,17.9-333,53.1l-22,7.2l-14.1,4.6l0.4,14.8l0.6,23.1	c1.5,62.7,10.8,124.9,27.6,184.8c16.3,58.3,39.8,114.5,69.8,167.3C220.1,615.2,304,704.5,404,769.8l17.1,11.1L432,788.1 M432,22.6	C314.6,22.6,199,41,88.4,77.3L28.4,97l1.5,63.1c1.6,65.5,11.3,130.5,28.8,193.2c17.1,60.9,41.6,119.7,72.9,174.8	c61.6,108.4,149.4,201.7,253.8,270l46.5,30.4l46.5-30.4c104.5-68.3,192.2-161.6,253.8-270c31.3-55.1,55.9-113.9,72.9-174.8	c17.6-62.7,27.3-127.6,28.8-193.2l1.5-63.1l-60-19.7C665,41,549.4,22.6,432,22.6L432,22.6z M432,764.2l-17.1-11.1	c-97.3-63.6-179.1-150.6-236.4-251.5c-29.2-51.3-52-106.1-67.9-162.8c-16.4-58.3-25.4-118.9-26.8-179.9l-0.6-23.1l22-7.2	C210.4,93.9,320.3,76.4,432,76.4c111.7,0,221.6,17.5,326.8,52.1l22,7.2l-0.6,23.1c-1.5,61-10.5,121.6-26.8,179.9	c-15.9,56.7-38.7,111.5-67.9,162.8c-57.4,101-139.1,187.9-236.4,251.5L432,764.2L432,764.2z"/></g></svg>